<svg width="56" height="56" viewBox="0 0 56 56" fill="none" xmlns="http://www.w3.org/2000/svg">
<g clip-path="url(#clip0_1015_1578)">
<path d="M2 14C2 7.37258 7.37258 2 14 2H42C48.6274 2 54 7.37258 54 14V42C54 48.6274 48.6274 54 42 54H14C7.37258 54 2 48.6274 2 42V14Z" fill="white"/>
<path d="M33.7239 14C35.7969 14 37.642 14.3769 39.2366 15.1306C40.8313 15.8844 42.0842 16.9707 42.9498 18.3895C43.8154 19.8084 44.271 21.4489 44.271 23.3112C44.271 25.1069 43.8382 26.6809 42.9498 28.0554C42.0842 29.4299 40.8768 30.4719 39.3278 31.2035L45 42H38.1888L33.3822 32.6002H29V35L23 34.9778V14H33.7239ZM29 27.5899H33.2455C34.7034 27.5899 35.8424 27.213 36.7081 26.4371C37.5737 25.6611 38.0065 24.6192 38.0065 23.3112C38.0065 21.981 37.5737 20.9169 36.7081 20.1631C35.8424 19.3872 34.6806 19.0103 33.2455 19.0103H29V27.5899Z" fill="#005CA8"/>
<path d="M11 41.9778V14H17V37H29V42H11V41.9778Z" fill="#E74F35"/>
<path fill-rule="evenodd" clip-rule="evenodd" d="M42 3H14C7.92487 3 3 7.92487 3 14V42C3 48.0751 7.92487 53 14 53H42C48.0751 53 53 48.0751 53 42V14C53 7.92487 48.0751 3 42 3ZM14 0C6.26801 0 0 6.26801 0 14V42C0 49.732 6.26801 56 14 56H42C49.732 56 56 49.732 56 42V14C56 6.26801 49.732 0 42 0H14Z" fill="#005CA8"/>
</g>
<defs>
<clipPath id="clip0_1015_1578">
<rect width="56" height="56" fill="white"/>
</clipPath>
</defs>
</svg>
